<svg xmlns="http://www.w3.org/2000/svg" width="159.403" height="198.349" viewBox="0 0 159.403 198.349">
  <g id="scribbles-scribbles-20_1" data-name="scribbles-scribbles-20 1" transform="translate(-40.307 -25.324)">
    <path id="Vector" d="M2.213,37.637C8.8,24.452,16.876,12.228,25.411.333c.976.249.119.858.466,1.241.553.255,1.168-1.079,1.88.108a2.457,2.457,0,0,1-.194,2.752c-2.422,4.445-5.922,8.2-8.034,12.888-.722,1.6-1.038,3.567-2.822,4.814-1.1.769-.839,2.711-1.808,3.991-.607.8-.944,1.922-1.618,2.827A23.88,23.88,0,0,0,8.6,41.1c-.08.807-.415,1.535-1.162,1.561-2.038.068-4.063.913-6.059-.871A3.5,3.5,0,0,1,.2,37.764c.989-3.761,2.951-7.081,4.876-10.4,2.253-3.88,4.81-7.576,7.2-11.371,3.209-5.1,6.8-9.918,10.209-14.874.324-.471.635-1.444,1.346-1.016.535.322-.029,1.094-.334,1.562-1.926,2.956-3.988,5.812-6.1,8.643a85.216,85.216,0,0,0-5.411,8.632C9.251,23.7,6.241,28.3,3.77,33.211A12.552,12.552,0,0,0,2.213,37.637Z" transform="translate(62.082 25.324)" opacity="0.2"/>
    <path id="Vector-2" data-name="Vector" d="M7.2,29.193c-1.238,1-2.133-.554-2.524-.868-1.059-.85-2.718.027-3.132-.98C.923,25.821-.427,24.531.133,22.489A104.09,104.09,0,0,1,4.38,11.051,46.452,46.452,0,0,1,8.154,3.059,6.7,6.7,0,0,1,10.924.4a2.976,2.976,0,0,1,3.561.415,29.432,29.432,0,0,1,2.873,2.165c.788.854,1.411,1.748.483,2.912-.652.816-.534,1.887-.862,2.819-1.319,3.741-1.821,7.77-3.937,11.23A67.265,67.265,0,0,0,9.1,28.011C8.757,28.8,8.421,29.744,7.2,29.193Z" transform="translate(46.677 90.671)" opacity="0.2"/>
    <path id="Vector-3" data-name="Vector" d="M17.929,0c-.291.656-.478,1.079-.659,1.486.215.281.415.114.627.054.438-.124.588-.963,1.121-.627.642.405-.184.891-.134,1.372.7.163.889-.705,1.462-.729.888,1.366.422,2.466-.4,3.691a45.423,45.423,0,0,0-5.507,10.659c-.5,1.446-2.348,2.153-2.383,3.831a9.757,9.757,0,0,1-2.156,5.5c-1.929,2.629-2.341,5.722-3.488,8.581-.323.8.12,1.794-.675,2.453-.256.212-.659.7-.827.291-.574-1.4-1.694-.724-2.62-.955-1.72-.43-2.058-2.116-2.226-3.6a12.739,12.739,0,0,1,1.359-6.681A124.691,124.691,0,0,1,14.494,2.633C15.29,1.554,16,.2,17.929,0Z" transform="translate(113.991 91.844)" opacity="0.2"/>
    <path id="Vector-4" data-name="Vector" d="M21.721,3.037c-.4,1.241-.784,2.541-1.231,3.818A174.472,174.472,0,0,1,9.986,30.27a77.2,77.2,0,0,0-4.445,8.806c-.332.889-.925,1.591-1.986.645A2.836,2.836,0,0,0,2.6,39.28a3.5,3.5,0,0,1-2.37-4.754A27.877,27.877,0,0,1,3.516,28.06,183.423,183.423,0,0,0,17.777.943c.488-1.206.63-1.2,1.486-.286a.581.581,0,0,0,.417.16C21.277.675,21.423,1.844,21.721,3.037Z" transform="translate(86.143 57.127)" opacity="0.2"/>
    <path id="Vector-5" data-name="Vector" d="M13.771,0C12.309,3.6,9.917,6.353,8.524,9.612c-1.409,3.295-3.113,6.47-4,9.986,1.282-2.82,2.557-5.642,3.848-8.457a90.27,90.27,0,0,1,5.208-9.26c.927-1.52,1.968-1.443,3.012-.605a2.056,2.056,0,0,1,.271,3.154A15.786,15.786,0,0,0,13.1,11.337c-1.245,4.274-3.43,8.235-4.089,12.7-.152,1.029-.9,1.906-1.05,3.052a5.5,5.5,0,0,0,.4,3.595c.373.7,1.287,1.616.474,2.395a2.269,2.269,0,0,1-2.744.524,3.95,3.95,0,0,0-1.566-.094C1.433,33.4-.39,31.391.071,28.279a48.448,48.448,0,0,1,3.842-11.94A76.67,76.67,0,0,1,11.655,1.826,3.889,3.889,0,0,1,13.771,0Z" transform="translate(40.307 151.167)" opacity="0.2"/>
    <path id="Vector-6" data-name="Vector" d="M4.583,29.9C.4,29.9-.858,28.065.557,24.6a29.344,29.344,0,0,1,4.8-7.184C9.6,12.188,14.017,7.114,18.715,2.285A8.579,8.579,0,0,1,22.692.244c.5-.153,1.616-.453,1.572-.018-.088.891.806,1.7,0,2.654-3.594,4.256-6.8,8.813-10.126,13.28-1.465,1.97-3.086,3.826-4.5,5.832-.954,1.357-1.929,2.822-.962,4.65.115.218.056.791-.047.825C6.983,28.018,5.985,29.776,4.583,29.9Z" transform="translate(133.681 160.648)" opacity="0.2"/>
    <path id="Vector-7" data-name="Vector" d="M7.525,10.805c2.147-2.412,3.483-5.346,5.6-7.743a24.771,24.771,0,0,0,1.9-2.085c.881-1.265,1.785-.3,2.368.1a1.479,1.479,0,0,1,.224,2.133,60.317,60.317,0,0,0-6.141,11.123C10.292,17.084,8.314,19.5,7.9,22.7a25.233,25.233,0,0,1-1.445,3.972c-.615,1.816-1.877.312-2.851.246-.154-.01-.29-.462-.43-.46-.6.009-.952,1.535-1.655.476C.564,25.5-.453,24.14.215,22.015a44.33,44.33,0,0,1,4.467-9.4C7.1,8.561,9.323,4.37,12.759,1.028c.253-.246.486-.517.756-.742s.655-.431.955-.145c.381.364.18.8-.154,1.079C11.4,3.606,9.95,7.047,7.909,10.06a6.806,6.806,0,0,0-.384.745Z" transform="translate(173.484 85.062)" opacity="0.2"/>
    <path id="Vector-8" data-name="Vector" d="M20.338,3.684A24.892,24.892,0,0,0,23,1.118,2.4,2.4,0,0,1,26.094.239c.735.291.579,1.063.508,1.554a3.245,3.245,0,0,1-2.154,2.69c-.293.108-.733-.114-.732.415.006,2.583-2.259,3.958-3.232,6.027-.3.635-.855,1.237-1.245,1.887-1.145,1.9-2.081,3.964-4.507,4.69-.565.169-1.461.675-1.156,1.533.932,2.62-.9,4.37-1.944,6.312-1.711,3.191-3.881,6.122-5.468,9.391-.179.369-.29.893-.8.765-.642-.16.207-.731-.237-1.067-.8.427-1.5,1.577-2.621.22-.4-.485-.983.335-1.27.85-.218.391-.457.761-.95.472-.594-.348-.083-.712.075-1.032A133.2,133.2,0,0,1,10.413,18.359L20.1,4.253Z" transform="translate(88.796 152.112)" opacity="0.2"/>
    <path id="Vector-9" data-name="Vector" d="M6.349,19.926c-.616.18.955-1.961-.724-.647-.045.036-.133.09-.154.073a2.038,2.038,0,0,0-3.093.239c-.265.276-2.327-2.034-2.371-2.717a5.633,5.633,0,0,1,.647-2.9A36.081,36.081,0,0,1,11.356,1.22C13.583-.457,15.919-.274,18.25.975c1.252.671,1.245,1.478.205,2.483A44.463,44.463,0,0,0,15.336,6.8c-1.133,1.343-2.08,2.818-3.327,4.1-1.636,1.677-2.2,4.058-3.391,6.05A9.483,9.483,0,0,1,6.349,19.926ZM2.475,15.278c1.979-3.063,3.974-6.122,6.176-9.041C6.139,8.119,3.11,12.492,2.475,15.276Z" transform="translate(137.916 119.833)" opacity="0.2"/>
    <path id="Vector-10" data-name="Vector" d="M11.752,0c-.261.889-.415,1.423-.656,2.239.4-.308.639-.4.712-.567.592-1.355,1.681-1,2.539-.566a1.867,1.867,0,0,1,.788,2.44A28.1,28.1,0,0,1,13,7.873,35.689,35.689,0,0,0,9.72,13.624C8.89,15.77,7.679,17.857,8.2,20.378a1.233,1.233,0,0,1-1.837,1.4,3.433,3.433,0,0,0-1.706-.208C.953,21.758-.958,19.133.48,15.6c2.027-4.98,5.3-9.191,8.705-13.286C9.835,1.533,10.283.491,11.752,0Z" transform="translate(184.393 142.82)" opacity="0.2"/>
    <path id="Vector-11" data-name="Vector" d="M1.893,32.831c-.022,1.328,1.1,1.975,1.255,3.037-1.64.224-2.673-.664-3.029-2.5a7.5,7.5,0,0,1,1.2-5.4c2.059-3.373,3.776-6.941,6.652-9.853,1.126-1.14,1.9-2.983,3-4.362C14.088,9.82,17.344,6,20.561,2.142a8.4,8.4,0,0,1,2.3-1.929,1.084,1.084,0,0,1,1.32.022.909.909,0,0,1,.15,1.277,15.044,15.044,0,0,1-1.183,1.969C18.8,9,14.334,14.437,10.11,20.05a26.1,26.1,0,0,0-3.816,7.326c-.409,1.213.029,2.544.166,3.82.037.347.522.82-.093,1.079-1.181.5-2.17,1-1.131,2.535.236.35-.3.535-.674.543-.668.015-1.437,0-1.516-.825C2.976,33.768,2.544,33.38,1.893,32.831Z" transform="translate(59.337 187.771)" opacity="0.2"/>
    <path id="Vector-12" data-name="Vector" d="M12.331,5.447c-.383-.272-.6-.324-.766.083a36.109,36.109,0,0,1-1.913,4.4c-.481.83-.378,2.548-2.22,2.048-.293-.08-.233.29-.1.5.311.488.118.847-.219,1.258a2.879,2.879,0,0,0-.583,2.436c.276,1.772-.957,2.636-2.578,1.909-.2-.087-.54-.383-.558-.261-.415,2.888-1.98-.941-2.618.457a2.116,2.116,0,0,1-.759-1.533A6.618,6.618,0,0,1,1.145,12.9C3.668,8.387,7.284,4.783,10.991,1.273,11.884.428,13.23.382,14.386.041c.679-.2,1.079.363,1.338.9.352.737-.036.814-.64.617C15,2.882,14.139,3.8,13.43,4.8,13.117,5.246,12.915,5.781,12.331,5.447Z" transform="translate(77.201 124.467)" opacity="0.2"/>
    <path id="Vector-13" data-name="Vector" d="M4.373,32.812c-.518.747-.148,2.027-1.779,2.13-1.179.075-.966-.5-.967-1.1-1.014.091-.608,1.3-1.506,1.535-.37-1.629.231-3.19.158-4.755A1.008,1.008,0,0,0,.3,30.468c1.26-1.079,1.55-2.7,2.248-4.088A15.285,15.285,0,0,1,3.292,24.6c2.846-4.187,5.161-8.707,8.226-12.762,2.4-3.178,4.529-6.563,7.1-9.625A8.036,8.036,0,0,1,20.992,0c-.977,1.768-1.721,3.113-2.463,4.459.018-.053.034-.108.049-.166-1.958,1.55-2.756,3.942-4.433,5.73.573.485.745-.021,1.02-.078.471-.1.762.2.945.6.09.2.269.491-.048.573-1.407.361-1.069,1.528-1.111,2.453a2.346,2.346,0,0,1-1.4,2.042,3.164,3.164,0,0,0-1.833,3.193l-.648.96c-1.347.66-3.273,3.876-3.136,5.235-.769.039-1.072,1.494-2.116.7-.31-.86-.486-1.268-1.291-.2-1.017,1.354-.853,3.2-2.08,4.4a.361.361,0,0,0,.08.6.41.41,0,0,0,.676-.265c.216-1.379,1.317-2.348,1.65-3.661.141-.554.29-1.037,1.013-.928.439,2.556-1.528,4.3-2.2,6.483-.089.291-1.174-.49-.78.483a.916.916,0,0,0,1.488.193Zm6.171-16.1-.437-.324c-.837,1.328-1.682,2.647-2.5,3.984-.1.156-.282.439,0,.609.2.119.534.153.6-.1.427-1.584,1.915-2.592,2.335-4.172Z" transform="translate(131.766 40.596)" opacity="0.2"/>
    <path id="Vector-14" data-name="Vector" d="M1.293,14.279a3.816,3.816,0,0,0,.237,2.752c.166.454.293.8-.249.985-.5.172-.8-.176-.977-.554a4.223,4.223,0,0,1-.071-2.957A25.453,25.453,0,0,1,5.5,5.178,20.088,20.088,0,0,0,7.567,2.7C8.558,1.037,10.246.563,11.855.038c.751-.245.9.762,1.05,1.3a1.253,1.253,0,0,1-.415,1.094C9.815,4.185,9.384,7.444,7.57,9.787c-.6.772-.323,2.338-1.1,3.364-.61.81-.938,1.823-2.075,2.208-.654.222-.159,1.065-.454,1.566-.152.256-.245.566-.568.608s-.727-.233-.669-.439C3.1,15.712,1.465,15.36,1.293,14.279Z" transform="translate(175.12 177.173)" opacity="0.2"/>
    <path id="Vector-15" data-name="Vector" d="M21.9,4.13l-.243.57a44.109,44.109,0,0,0-6.082,7.05c-2.529,3.417-4.817,7.026-7.019,10.666C6.693,25.5,4.315,28.267,3.007,31.7A7.035,7.035,0,0,1,.061,35.315c-.362-2.1.974-3.442,1.743-4.921A98.7,98.7,0,0,1,8.916,19.343C13.463,12.877,17.736,6.194,23.4.591c.325-.321.584-.761,1.364-.523C24.258,1.766,22.63,2.657,21.9,4.13Z" transform="translate(87.232 151.667)" opacity="0.2"/>
    <path id="Vector-16" data-name="Vector" d="M1.547,10.467c-.7.511.125,1.892-.943,1.667-.911-.192-.581-1.3-.352-2.007A16.3,16.3,0,0,1,8.515.422c.614-.32,1.5-.809,2.071.1.5.8-.276,1.294-.72,1.8C8,4.429,6.233,6.586,5.768,9.5c-.117.731-.71,1-1.314,1.243a1.577,1.577,0,0,0-.573.4C2.7,12.482,1.805,12.624,1.547,10.467Z" transform="translate(176.412 120.575)" opacity="0.2"/>
    <path id="Vector-17" data-name="Vector" d="M6.892,0C6.7,2.173,4.839,3.372,3.829,5.063A13,13,0,0,1,1.275,8.732c-.3.249-.415.793-.907.517A.723.723,0,0,1,.16,8.165,70.872,70.872,0,0,1,5.19.792C5.638.248,6.345.263,6.942.042Z" transform="translate(134.558 52.762)" opacity="0.2"/>
    <path id="Vector-18" data-name="Vector" d="M.288,11.084c-.222-.482-.48-.929-.076-1.478A96.523,96.523,0,0,1,7.391.518C7.6.3,7.71-.219,8.173.1c.294.208.221.525.02.779C5.6,4.16,3.085,7.492.73,10.945c-.067.1-.325.064-.493.092Z" transform="translate(141.212 41.722)" opacity="0.2"/>
    <path id="Vector-19" data-name="Vector" d="M1.793,7.616a1.008,1.008,0,0,1-.022.152c-.313.792-1,1.434-.938,2.38.021.337.066.817-.448.772-.459-.042-.4-.466-.357-.83A34.32,34.32,0,0,1,2.709.864c.21-.51.826-1.059,1.387-.8.664.31.163.967-.073,1.353A21.994,21.994,0,0,0,1.793,7.616Z" transform="translate(130.275 63.447)" opacity="0.2"/>
    <path id="Vector-20" data-name="Vector" d="M1.211,2.948C1.2,3,1.18,3.06,1.162,3.114,1.909,2.353,3.213,2.128,3.34.724,3.36.492,3.95-.355,4.547.168c.567.5-.038,1.021-.367,1.332A11.779,11.779,0,0,0,.846,6.622c-.57-.664-1.421-1.1-.288-1.909C1.167,4.278.923,3.511,1.211,2.948Z" transform="translate(149.13 41.941)" opacity="0.2"/>
    <path id="Vector-21" data-name="Vector" d="M.475,1.572l.648-.96L1.9,0l.273.19L.383,3.385,0,3.261Z" transform="translate(142.36 58.794)" opacity="0.2"/>
    <path id="Vector-22" data-name="Vector" d="M.079,5.7C-.269,4.474.622,3.661,1.09,2.718,1.548,1.793,2.082.9,2.584,0a1.429,1.429,0,0,1-.121,1.318C1.64,2.763.869,4.235.079,5.7Z" transform="translate(136.753 66.791)" opacity="0.2"/>
  </g>
</svg>
